<?xml version="1.0" encoding="utf-8"?>
<!-- Svg Vector Icons : http://www.onlinewebfonts.com/icon -->
<!DOCTYPE svg PUBLIC "-//W3C//DTD SVG 1.1//EN" "http://www.w3.org/Graphics/SVG/1.1/DTD/svg11.dtd">
<svg version="1.1" xmlns="http://www.w3.org/2000/svg" xmlns:xlink="http://www.w3.org/1999/xlink" x="0px" y="0px" viewBox="0 0 256 256" enable-background="new 0 0 256 256" xml:space="preserve">
<metadata> Svg Vector Icons : http://www.onlinewebfonts.com/icon </metadata>
<g><g><path fill="#000000" d="M128,58.6c-38.3,0-69.4,31.1-69.4,69.4c0,38.3,31.1,69.4,69.4,69.4c38.3,0,69.4-31.1,69.4-69.4C197.4,89.7,166.3,58.6,128,58.6L128,58.6z M85.6,168.9c3.5-23.2,21.1-40.8,42.4-40.8c-13,0-23.5-10.5-23.5-23.5c0-13,10.5-23.5,23.5-23.5c13,0,23.5,10.5,23.5,23.5c0,13-10.5,23.5-23.5,23.5c21.3,0,38.9,17.7,42.4,40.8H85.6L85.6,168.9z"/><path fill="#000000" d="M128,10C62.8,10,10,62.8,10,128c0,65.2,52.8,118,118,118c65.2,0,118-52.8,118-118C246,62.8,193.2,10,128,10z M128,204.9c-42.5,0-76.9-34.4-76.9-76.9c0-42.5,34.4-76.9,76.9-76.9c42.5,0,76.9,34.4,76.9,76.9C204.9,170.5,170.5,204.9,128,204.9z"/></g></g>
</svg>